<?xml version="1.0" standalone="no"?>
<!DOCTYPE svg PUBLIC "-//W3C//DTD SVG 20010904//EN"
 "http://www.w3.org/TR/2001/REC-SVG-20010904/DTD/svg10.dtd">
<svg version="1.0" xmlns="http://www.w3.org/2000/svg"
 width="300.000000pt" height="300.000000pt" viewBox="0 0 300.000000 300.000000"
 preserveAspectRatio="xMidYMid meet">
<metadata>
Created by potrace 1.10, written by Peter Selinger 2001-2011
</metadata>
<g transform="translate(0.000000,300.000000) scale(0.100000,-0.100000)"
fill="#000000" stroke="none">
<path d="M1729 2366 c-227 -64 -377 -292 -339 -514 39 -229 242 -399 464 -391
251 9 448 209 448 454 0 218 -138 394 -352 450 -62 16 -166 16 -221 1z m-69
-78 c-68 -35 -131 -93 -170 -157 -14 -22 -28 -41 -32 -41 -12 0 25 57 72 111
39 46 148 119 179 119 8 0 -15 -15 -49 -32z m286 -3 c121 -36 219 -131 258
-251 26 -81 27 -112 2 -229 -1 -5 -12 -31 -24 -56 -31 -63 -103 -134 -176
-172 -56 -29 -69 -31 -161 -32 -91 0 -105 3 -160 30 -320 160 -282 602 60 711
55 17 141 17 201 -1z m193 -66 c34 -33 61 -64 61 -69 0 -5 6 -15 13 -22 18
-19 47 -97 37 -103 -4 -3 -11 7 -15 23 -13 51 -66 131 -121 181 -31 28 -51 51
-46 51 6 0 38 -27 71 -61z m-695 -212 c-4 -26 -10 -47 -14 -47 -7 0 -5 25 6
79 9 41 14 16 8 -32z m825 -94 c1 -29 -3 -62 -8 -75 -5 -13 -12 -36 -16 -52
-3 -15 -8 -26 -11 -23 -3 3 0 23 5 45 6 22 12 75 13 118 1 86 16 75 17 -13z
m-829 -68 c0 -33 30 -106 61 -152 33 -50 38 -66 11 -37 -29 31 -80 145 -87
194 -4 33 -3 41 4 30 6 -8 11 -24 11 -35z m790 -104 c0 -14 -91 -134 -97 -128
-3 3 5 16 17 29 12 13 33 42 47 66 25 42 33 50 33 33z"/>
<path d="M1810 2171 c-5 -11 -10 -29 -10 -41 0 -12 -16 -37 -36 -56 -35 -32
-36 -37 -32 -84 6 -62 36 -98 90 -106 44 -8 62 -25 53 -53 -10 -31 -34 -33
-67 -6 -16 14 -35 25 -41 25 -49 -1 -48 -64 0 -95 22 -14 32 -28 33 -46 0 -40
22 -63 53 -55 22 5 27 12 27 38 0 23 10 40 40 68 33 30 40 44 40 74 0 70 -50
126 -114 126 -38 0 -52 34 -26 60 l20 20 39 -22 c33 -19 41 -20 55 -9 25 21
19 48 -19 77 -27 21 -35 33 -35 59 0 46 -49 64 -70 26z m70 -95 l25 -28 -32 7
c-44 9 -93 -20 -93 -55 1 -37 22 -58 74 -76 32 -11 51 -25 61 -44 18 -35 10
-60 -39 -124 l-35 -47 -16 30 c-8 16 -25 37 -37 47 -20 14 -20 15 -3 9 50 -19
74 -17 99 8 14 15 26 32 26 40 0 27 -39 63 -79 76 -78 23 -87 81 -24 156 20
25 40 42 43 37 3 -4 16 -20 30 -36z"/>
<path d="M2171 1393 c-36 -20 -93 -74 -196 -185 l-145 -158 -20 39 c-25 49
-68 93 -117 117 -30 15 -65 20 -167 22 -125 4 -130 5 -165 32 -141 113 -388
115 -529 5 l-45 -35 -122 0 c-81 0 -125 -4 -133 -12 -18 -18 -17 -557 1 -581
11 -16 57 -17 662 -15 l650 3 53 29 c43 24 100 84 309 325 140 163 260 306
266 319 9 19 6 27 -18 52 -71 74 -192 92 -284 43z m185 -65 c31 -15 30 -23 -8
-67 -18 -21 -127 -146 -242 -279 -157 -182 -219 -247 -251 -262 -40 -20 -57
-20 -521 -18 l-479 3 -3 225 c-1 124 0 235 3 248 4 17 25 32 73 55 62 29 75
32 167 32 113 -1 162 -17 229 -76 l39 -34 131 0 c124 -1 135 -2 177 -27 47
-27 99 -102 82 -119 -5 -5 -105 -10 -223 -11 l-215 -3 0 -30 0 -30 243 -3
c181 -2 249 1 266 10 14 7 87 80 163 163 189 205 204 219 243 232 37 12 87 9
126 -9z m-1530 -142 c-9 -29 -13 -33 -28 -25 -10 5 -18 19 -18 30 0 11 4 18 8
15 4 -2 14 -1 22 5 25 15 27 10 16 -25z m-56 -257 l0 -229 -85 0 -85 0 0 223
c0 123 2 226 5 228 2 3 40 5 85 6 l80 1 0 -229z m1045 111 c4 -6 15 -8 26 -5
20 7 24 -2 11 -21 -13 -19 -56 -44 -75 -44 -18 0 -18 1 -3 24 9 14 13 32 10
40 -7 18 21 23 31 6z m-976 -346 c28 -25 15 -44 -30 -44 -42 0 -49 12 -22 42
20 22 28 22 52 2z m-251 -6 c7 -7 12 -18 12 -25 0 -18 -35 0 -44 22 -7 18 15
20 32 3z"/>
<path d="M1175 997 c-10 -8 -16 -23 -13 -38 2 -19 9 -24 33 -24 25 0 31 4 33
27 4 34 -26 54 -53 35z"/>
</g>
</svg>
